<svg version="1.2" xmlns="http://www.w3.org/2000/svg" viewBox="0 0 512 512" width="512" height="512">
	<title>New Project</title>
	<style>
		.s0 { fill: #ffffff } 
	</style>
	<path id="&lt;Path&gt;" fill-rule="evenodd" class="s0" d="m234.5 207.5l3-12.1 1.9-7.8 5.9 5.4 11.1 10.2 11-10.2 6-5.4 1.9 7.8 3 12.1 0.4 1.8-0.9 1.7-17.3 29.9-4.1 7.1-4.1-7.1-17.3-29.9-0.9-1.7zm10.3-1.9l-0.6 2.3 12.1 21.1 12.2-21.1-0.6-2.3-8.3 7.7-3.3 3-3.2-3z"/>
	<path id="&lt;Path&gt;" fill-rule="evenodd" class="s0" d="m252.8 353.4l-28.2-32.7-1.5-1.7 0.4-2.3 8.2-44.3 0.4-2.3 2.1-1.1 20-10.1 2.2-1.1 2.1 1.1 20 10.1 2.2 1.1 0.4 2.3 8.1 44.3 0.5 2.3-1.5 1.7-28.2 32.7-3.6 4.1zm-19.5-37.1l23.1 26.7 23.1-26.7-7.4-39.7-15.7-8-15.7 8z"/>
	<path id="&lt;Path&gt;" fill-rule="evenodd" class="s0" d="m89.7 161.5l140 48.2 1.7 0.6 0.9 1.5 24.1 41.8 24.1-41.8 0.9-1.5 1.7-0.6 140-48.2 21.7-7.5-17 15.5-128.2 117.5-2.4 2.2-3-1.5-37.8-19.2-37.9 19.2-2.9 1.5-2.4-2.2-128.3-117.5-16.9-15.5zm135.2 56.7l-116.6-40.2 108.9 99.7 32.5-16.5zm179.6-40.2l-116.6 40.2-24.8 43 32.5 16.5z"/>
</svg>